<svg xmlns="http://www.w3.org/2000/svg" viewBox="0 0 966 512"><g fill="none" fill-rule="evenodd"><path d="M663.192 512c51.029 0 104.876-9.717 141.017-18.923 120.83-30.778 202.115-134.662 140.916-255.097C897.525 144.31 788.572 95 689.072 95c-99.33 0-189.238 49.15-199.257 152.373-8.442 86.97 49.628 152.39 131.736 201.696 3.712 2.23 7.952 3.862 11.972 5.353-10.184 19.078-37.92 33.436-58.533 43.356C599.818 508.12 630.94 512 663.192 512L804 466.5" fill="#FD7560"/><path d="M188.248 462.99C47.66 427.196-46.918 306.37 24.288 166.297 79.672 57.352 206.442 0 322.213 0c115.573 0 220.183 57.164 231.84 177.22 9.822 101.152-57.744 177.24-153.278 234.587-4.32 2.593-9.252 4.492-13.93 6.225 11.85 22.19 44.12 38.89 68.104 50.427C426.061 480.488 389.85 485 352.324 485c-59.373 0-122.025-11.301-164.076-22.01z" fill="#1A86AB" style="mix-blend-mode:darken"/></g></svg>