<svg xmlns="http://www.w3.org/2000/svg" viewBox="0 0 113 152"><g fill="#4A4A4A" fill-rule="evenodd"><path d="M16.036 141.173l.005.026.009.041v.004c.042.197.11.384.2.556l.002.008.018.03c.161.302.386.555.65.745l.012.009.023.016.023.016h.001c.236.161.504.276.793.333l.021.004a2.239 2.239 0 00.404.039l.048-.001h48.508l.05.001a2.071 2.071 0 00.408-.039l.013-.003a2.18 2.18 0 00.874-.388c.007-.006.014-.012.023-.017.234-.179.435-.405.586-.673.005-.008.01-.016.013-.024l.009-.015c.1-.186.174-.386.219-.597l.001-.004.009-.04.004-.027.004-.019c.025-.145.036-.29.034-.432v-17.443a2.243 2.243 0 00-.035-.434l-.003-.02-.004-.024a2.015 2.015 0 00-.009-.042l-.001-.003a2.179 2.179 0 00-.233-.621l-.008-.013-.004-.008a2.215 2.215 0 00-.58-.665l-.01-.007-.023-.017-.023-.018-.01-.006a2.208 2.208 0 00-1.305-.4H18.241a2.447 2.447 0 00-.374.024c-.001.002-.004.002-.007.002l-.018.004a2.167 2.167 0 00-.953.408l-.023.017a.14.14 0 00-.023.02l-.01.005c-.214.173-.4.388-.542.64l-.01.018a2.19 2.19 0 00-.23.617l-.001.003-.01.042c0 .008-.002.016-.004.025l-.004.019c-.024.145-.035.29-.031.434v17.443c-.004.142.007.287.031.432l.004.02zm14.897-2.634l11.567-4.173 11.566 4.173H30.933zm33.674-.93L49.057 132l15.55-5.61v11.22zm-10.54-12.15l-11.568 4.174-11.566-4.173h23.133zm-33.675.93l15.55 5.61-15.55 5.61v-11.22zM18.193 117h26.614c1.212 0 2.193-.895 2.193-2 0-1.104-.981-2-2.193-2H18.193c-1.212 0-2.193.895-2.193 2s.981 2 2.193 2zM66.808 113H52.193c-1.21 0-2.193.895-2.193 2s.98 2 2.193 2h14.615c1.211 0 2.192-.895 2.192-2 0-1.104-.98-2-2.192-2zM40.194 110h26.613c1.212 0 2.193-.895 2.193-2s-.981-2-2.193-2H40.194c-1.21 0-2.194.895-2.194 2 .001 1.105.983 2 2.194 2zM17.572 110.26h13.744a2.199 2.199 0 002.192-2.205 2.199 2.199 0 00-2.192-2.205H17.572a2.198 2.198 0 00-2.193 2.205c0 1.218.981 2.205 2.193 2.205z"/><path d="M112.527 78.527a2.19 2.19 0 00-1.82-.975h-29.4c-.04 0-.081.002-.121.005l-4.078-4.102a4.469 4.469 0 00-3.189-1.328 4.469 4.469 0 00-3.19 1.328l-1.548 1.558c-.037.038-.099.043-.156.014a26.543 26.543 0 00-4.13-1.717c-.058-.019-.097-.066-.097-.121v-2.203c0-2.501-2.024-4.536-4.511-4.536h-7.063c-2.487 0-4.51 2.035-4.51 4.536v2.203c0 .055-.038.102-.097.12a26.633 26.633 0 00-4.13 1.718c-.056.03-.118.024-.156-.015l-1.548-1.556a4.469 4.469 0 00-3.19-1.329 4.474 4.474 0 00-3.19 1.328l-4.108 4.132a2.133 2.133 0 00-.382-.035h-29.4a2.19 2.19 0 00-1.82.975 2.217 2.217 0 00-.213 2.06l7.387 18.287-.002.066v46.914c0 2.624 2.124 4.758 4.733 4.758h88.022c2.61 0 4.733-2.134 4.733-4.758V98.94l-.001-.066 7.387-18.286a2.213 2.213 0 00-.212-2.061zM5.771 81.963h24.326a4.49 4.49 0 00.446 1.707l.001.004c.013.028.027.055.042.082l.011.023.033.062.02.036.02.037.034.058.017.03.037.061.017.028.04.062.018.027.037.056.02.027c.011.019.024.036.037.053l.021.03c.013.02.026.037.039.054l.02.026.043.056.023.028.043.054.025.031.042.049.03.034.034.038.039.043c.008.01.017.019.027.028.015.018.031.035.048.052l.024.025c.01.008.018.018.026.027l.322.322.084.084.818 1.991-.02.045c-.02.038-.037.079-.055.117l-.049.104-.051.11-.032.07-.071.158-.03.068-.07.157-.026.06c-.018.045-.038.09-.057.134a.67.67 0 01-.027.062 5.671 5.671 0 01-.07.166l-.024.062c-.025.057-.047.115-.072.172l-.016.039-.06.151-.022.057-.067.173-.022.056-.063.165c-.005.017-.013.034-.02.052-.018.053-.038.105-.057.156l-.018.052a8.522 8.522 0 00-.063.177l-.022.056-.06.172-.011.036-.06.174-.014.043-.062.186c-.006.015-.01.03-.014.044-.022.066-.043.13-.063.196-.02.06-.066.098-.12.098h-2.193c-2.487 0-4.51 2.035-4.51 4.536v1.346H11.739L5.771 81.963zm65.795 64.238H12.6a.347.347 0 01-.345-.347v-44.71h59.314v45.057h-.002zM44.522 96.735c1.039-5.843 6.13-10.291 12.234-10.291 6.105 0 11.195 4.448 12.235 10.29H44.522zm12.234-14.7c-8.528 0-15.594 6.415-16.672 14.7H28.83v-1.346c0-.069.056-.125.124-.125h2.192c1.971 0 3.698-1.274 4.3-3.17a17.7 17.7 0 01.285-.842l.034-.096a22.4 22.4 0 011.106-2.53l.009-.016.015-.033a4.545 4.545 0 00-.836-5.249l-.817-.823-.015-.016-.716-.72c-.047-.047-.033-.109-.027-.126l.007-.021a.088.088 0 01.022-.026l4.993-5.022c.01-.01.036-.037.088-.037.051 0 .077.027.087.037l1.548 1.556a4.485 4.485 0 005.27.816 22.09 22.09 0 013.45-1.434 4.525 4.525 0 003.153-4.323v-2.205c0-.067.055-.123.124-.123h7.062c.068 0 .125.056.125.123v2.205a4.525 4.525 0 003.152 4.323c1.187.38 2.347.862 3.45 1.434a4.483 4.483 0 005.268-.816l1.55-1.557c.009-.009.035-.036.086-.036.051 0 .079.027.087.037l4.414 4.437-5.48 13.334c-1.996-7.097-8.496-12.31-16.184-12.31zm44.212 63.819a.347.347 0 01-.348.347H75.953v-45.056h25.015v44.709zm.514-49.12H76.703l6.072-14.77h24.675l-5.968 14.77zM4.412 19.7a2.199 2.199 0 00-2.192 2.206c0 6.89 5.574 12.496 12.428 12.496h2.338c6.22 0 11.935-3.419 14.938-8.822h9.845a2.199 2.199 0 002.193-2.205 2.199 2.199 0 00-2.193-2.205H30.575c-.86 0-1.64.507-1.997 1.296-2.058 4.57-6.608 7.525-11.592 7.525h-2.338c-3.674 0-6.781-2.49-7.738-5.88h8.906c.662 0 1.286-.3 1.703-.816l3.801-4.704c.656-.81.656-1.971 0-2.781l-3.801-4.704a2.186 2.186 0 00-1.701-.816H6.91c.957-3.39 4.064-5.88 7.738-5.88h2.34c5.38 0 10.2 3.427 11.992 8.527a2.196 2.196 0 002.068 1.47h50.83c.93 0 1.76-.59 2.07-1.47C85.74 7.837 90.56 4.41 95.94 4.41h2.338c3.674 0 6.781 2.49 7.738 5.88h-8.906c-.662 0-1.286.3-1.703.816l-3.801 4.704a2.216 2.216 0 000 2.78l3.801 4.706a2.188 2.188 0 001.703.815h8.906c-.957 3.39-4.062 5.88-7.738 5.88h-2.338c-4.984 0-9.534-2.953-11.593-7.525a2.192 2.192 0 00-1.997-1.296h-31.81a2.199 2.199 0 00-2.192 2.205c0 1.22.982 2.207 2.193 2.207h30.461c3.003 5.401 8.718 8.82 14.938 8.82h2.338c6.854 0 12.428-5.606 12.428-12.496a2.198 2.198 0 00-2.193-2.205h-10.36l-2.02-2.5 2.02-2.498h10.36a2.198 2.198 0 002.193-2.205C110.707 5.606 105.133 0 98.28 0h-2.338C89.236.001 83.177 3.96 80.406 10H32.52C29.751 3.957 23.693 0 16.988 0h-2.34C7.795 0 2.22 5.606 2.22 12.496c0 1.218.981 2.205 2.192 2.205h10.361l2.02 2.5-2.02 2.498H4.413zM56.756 48.221a2.198 2.198 0 00-2.193 2.205v6.762a2.2 2.2 0 002.193 2.207 2.2 2.2 0 002.194-2.207v-6.762a2.2 2.2 0 00-2.194-2.205z"/><path d="M59 33.17c0-1.198-.896-2.17-2-2.17-1.105 0-2 .972-2 2.17v6.658c0 1.2.895 2.172 2 2.172 1.104 0 2-.972 2-2.172v-6.657z"/></g></svg>