<svg xmlns="http://www.w3.org/2000/svg" viewBox="0 0 22 22"><g fill="#FD7560" fill-rule="nonzero"><path d="M21.523 16.783c-.687-.576-4.714-3.127-5.384-3.01-.314.056-.554.324-1.198 1.092a9.183 9.183 0 01-.977 1.058 8.452 8.452 0 01-1.866-.691A11.55 11.55 0 016.768 9.9a8.452 8.452 0 01-.691-1.865c.326-.353.68-.68 1.058-.978.767-.643 1.036-.882 1.091-1.198.117-.67-2.435-4.697-3.009-5.384C4.977.191 4.758 0 4.48 0 3.668 0 0 4.535 0 5.123c0 .048.079 4.77 6.041 10.836C12.108 21.92 16.83 22 16.877 22 17.465 22 22 18.332 22 17.521c0-.28-.19-.498-.477-.738zM16.5 10H18a6.007 6.007 0 00-6-6v1.5a4.504 4.504 0 014.5 4.5z"/><path d="M20.462 10H22C21.994 4.48 17.52.006 12 0v1.538A8.472 8.472 0 0120.462 10z"/></g></svg>