<svg xmlns="http://www.w3.org/2000/svg" xmlns:xlink="http://www.w3.org/1999/xlink" viewBox="0 0 78 90"><defs><path id="a" d="M0 90h77.143V0H0z"/></defs><g fill="none" fill-rule="evenodd"><path d="M38.112 16.76a2.985 2.985 0 110 5.97 2.985 2.985 0 010-5.97m0 8.954a5.97 5.97 0 100-11.939 5.97 5.97 0 000 11.94" fill="#FFF"/><mask id="b" fill="#fff"><use xlink:href="#a"/></mask><path fill="#4A4A4A" mask="url(#b)" d="M36.735 44.082h2.755v-2.755h-2.755zM36.735 56.939h2.755v-11.02h-2.755z"/><path d="M73.157 87H3.985l-.64-3h29.263c0 .828.668 1.5 1.491 1.5h8.945c.823 0 1.49-.672 1.49-1.5h29.264l-.64 3zM5.774 42h7.544l-1.566 11.805c-.056.428.075.86.358 1.185.28.327.69.513 1.118.51h5.963a1.49 1.49 0 001.372-.915L24.647 45h2.758a23.271 23.271 0 002.252 3.69c-.015.27-.03.54-.03.81.06 2.638.784 5.218 2.102 7.5h-9.556c-.823 0-1.491.672-1.491 1.5v18c0 .828.668 1.5 1.49 1.5H54.97c.823 0 1.49-.672 1.49-1.5v-18c0-.828-.667-1.5-1.49-1.5h-9.556a15.72 15.72 0 002.102-7.5c0-.27-.015-.54-.03-.81A23.27 23.27 0 0049.737 45h2.758l4.085 9.585a1.49 1.49 0 001.371.915h5.964c.428.003.837-.183 1.118-.51.283-.325.413-.757.357-1.185L63.825 42h7.543v39H43.044c-.824 0-1.491.672-1.491 1.5H35.59c0-.828-.668-1.5-1.491-1.5H5.774V42zm11.807-9.51l6.157-3.105c.176 4.303.99 8.555 2.415 12.615h-2.49a1.49 1.49 0 00-1.37.915L18.207 52.5h-3.28l2.653-20.01zM53.48 60v15H23.664V60h10.032a27.903 27.903 0 003.936 4.17c.55.44 1.329.44 1.879 0A27.885 27.885 0 0043.446 60H53.48zm-14.908.975c-1.893-1.815-5.963-6.345-5.963-11.475 0-7.065 3.146-12 5.963-12 2.818 0 5.963 4.935 5.963 12 0 5.13-4.07 9.66-5.963 11.475zm0-57.435C41.568 6.405 50.498 15.93 50.498 27a38.34 38.34 0 01-3.593 16.965C45.608 38.37 42.418 34.5 38.57 34.5c-3.846 0-7.036 3.87-8.333 9.465A38.344 38.344 0 0126.645 27c0-11.055 8.93-20.58 11.926-23.46zm14.834 25.845l6.156 3.105 2.654 20.01h-3.28l-4.084-9.585A1.49 1.49 0 0053.479 42h-2.49a43.459 43.459 0 002.416-12.615zm23.405 52.17A1.488 1.488 0 0075.662 81H74.35V40.5c0-.828-.668-1.5-1.49-1.5h-9.422l-1.03-7.695a1.472 1.472 0 00-.804-1.14l-8.185-4.125C52.868 11.895 40.092.825 39.541.36a1.484 1.484 0 00-1.939 0c-.551.465-13.327 11.535-13.879 25.68l-8.184 4.125c-.442.22-.745.648-.805 1.14L13.705 39H4.283c-.823 0-1.49.672-1.49 1.5V81H1.48a1.488 1.488 0 00-1.148.555 1.49 1.49 0 00-.298 1.26l1.297 6A1.493 1.493 0 002.792 90H74.35a1.493 1.493 0 001.46-1.185l1.298-6a1.49 1.49 0 00-.298-1.26z" fill="#4A4A4A" mask="url(#b)"/><path fill="#4A4A4A" mask="url(#b)" d="M59.694 66.122h8.265v-2.755h-8.265zM62.449 75.306h2.755v-2.755H62.45v2.755zm-1.378 2.755h5.51c.761 0 1.378-.617 1.378-1.377v-5.51c0-.761-.617-1.378-1.377-1.378h-5.51c-.761 0-1.378.617-1.378 1.377v5.51c0 .761.617 1.378 1.377 1.378zM9.184 66.122h8.265v-2.755H9.184zM11.939 75.306h2.755v-2.755h-2.755v2.755zm4.132-5.51h-5.51c-.76 0-1.377.617-1.377 1.377v5.51c0 .761.616 1.378 1.377 1.378h5.51c.761 0 1.378-.617 1.378-1.377v-5.51c0-.761-.617-1.378-1.378-1.378zM56.939 8.265h2.755V5.51h2.755V2.755h-2.755V0h-2.755v2.755h-2.755V5.51h2.755zM68.878 17.449h2.755v-2.755h2.755v-2.755h-2.755V9.184h-2.755v2.755h-2.756v2.755h2.756zM17.449 8.265h2.755V5.51h2.755V2.755h-2.755V0H17.45v2.755h-2.755V5.51h2.755zM5.51 17.449h2.755v-2.755h2.755v-2.755H8.265V9.184H5.51v2.755H2.755v2.755H5.51z"/></g></svg>