<svg xmlns="http://www.w3.org/2000/svg" xmlns:xlink="http://www.w3.org/1999/xlink" viewBox="0 0 160 186"><defs><path id="a" d="M0 186h160V0H0z"/></defs><g fill="none" fill-rule="evenodd"><path d="M79.5 34.25a6.25 6.25 0 110 12.5 6.25 6.25 0 010-12.5m0 18.75C86.404 53 92 47.404 92 40.5S86.404 28 79.5 28 67 33.596 67 40.5 72.596 53 79.5 53" fill="#FFF"/><mask id="b" fill="#fff"><use xlink:href="#a"/></mask><path fill="#FFF" mask="url(#b)" d="M77 90h6v-6h-6zM77 118h6V96h-6z"/><path d="M151.734 179.8H8.266l-1.33-6.2h60.696c0 1.712 1.384 3.1 3.092 3.1h18.552a3.096 3.096 0 003.092-3.1h60.695l-1.33 6.2zm-139.758-93h15.646l-3.247 24.397a3.106 3.106 0 00.742 2.45 3.03 3.03 0 002.32 1.053h12.367a3.092 3.092 0 002.845-1.89L51.12 93h5.72a48.063 48.063 0 004.67 7.626 29.905 29.905 0 00-.063 1.674 32.403 32.403 0 004.36 15.5h-19.82a3.096 3.096 0 00-3.092 3.1v37.2c0 1.712 1.384 3.1 3.092 3.1h68.024a3.096 3.096 0 003.092-3.1v-37.2c0-1.712-1.385-3.1-3.092-3.1h-19.82a32.399 32.399 0 004.36-15.5c0-.558-.031-1.116-.062-1.674A48.06 48.06 0 00103.159 93h5.72l8.472 19.81a3.092 3.092 0 002.845 1.89h12.367a3.03 3.03 0 002.32-1.054 3.105 3.105 0 00.742-2.449L132.378 86.8h15.645v80.6H89.276a3.096 3.096 0 00-3.092 3.1H73.816c0-1.712-1.384-3.1-3.092-3.1H11.976V86.8zm24.489-19.654l12.77-6.417A89.544 89.544 0 0054.244 86.8H49.08a3.09 3.09 0 00-2.844 1.891l-8.472 19.81H30.96l5.504-41.355zM110.92 124v31H49.08v-31h20.809a57.752 57.752 0 008.163 8.618c1.14.91 2.756.91 3.896 0A57.715 57.715 0 0090.11 124h20.809zM80 126.015c-3.927-3.75-12.368-13.113-12.368-23.715 0-14.6 6.524-24.8 12.368-24.8s12.368 10.2 12.368 24.8c0 10.602-8.441 19.964-12.368 23.715zM80 7.316c6.215 5.921 24.736 25.606 24.736 48.484a78.994 78.994 0 01-7.452 35.061c-2.69-11.563-9.307-19.56-17.284-19.56-7.977 0-14.594 7.997-17.284 19.56a79.005 79.005 0 01-7.452-35.06c0-22.848 18.52-42.533 24.736-48.485zm30.765 53.413l12.77 6.417 5.504 41.354h-6.802l-8.472-19.809a3.092 3.092 0 00-2.845-1.89h-5.164a89.532 89.532 0 005.009-26.072zm48.544 107.818a3.09 3.09 0 00-2.38-1.147h-2.722V83.7c0-1.712-1.384-3.1-3.092-3.1h-19.54l-2.134-15.903a3.043 3.043 0 00-1.67-2.356l-16.975-8.525C109.652 24.583 83.154 1.706 82.01.744a3.086 3.086 0 00-4.02 0c-1.144.961-27.642 23.84-28.786 53.072l-16.975 8.525a3.044 3.044 0 00-1.67 2.356L28.426 80.6H8.884a3.096 3.096 0 00-3.092 3.1v83.7h-2.72a3.09 3.09 0 00-2.381 1.147 3.072 3.072 0 00-.618 2.604l2.69 12.4A3.094 3.094 0 005.793 186h148.414a3.094 3.094 0 003.03-2.449l2.69-12.4a3.072 3.072 0 00-.618-2.604z" fill="#FFF" mask="url(#b)"/><path fill="#FFF" mask="url(#b)" d="M124 136h18v-6h-18zM130 154h6v-6h-6v6zm-3 6h12a3 3 0 003-3v-12a3 3 0 00-3-3h-12a3 3 0 00-3 3v12a3 3 0 003 3zM18 136h18v-6H18zM24 154h6v-6h-6v6zm9-12H21a3 3 0 00-3 3v12a3 3 0 003 3h12a3 3 0 003-3v-12a3 3 0 00-3-3zM117 18h6v-6h6V6h-6V0h-6v6h-6v6h6zM141 36h6v-6h6v-6h-6v-6h-6v6h-6v6h6zM37 18h6v-6h6V6h-6V0h-6v6h-6v6h6zM13 36h6v-6h6v-6h-6v-6h-6v6H7v6h6z"/></g></svg>