<svg xmlns="http://www.w3.org/2000/svg" xmlns:xlink="http://www.w3.org/1999/xlink" viewBox="0 0 113 115"><defs><path id="a" d="M0 .13h113v73.05H0z"/></defs><g fill="none" fill-rule="evenodd"><g transform="translate(0 40.14)"><mask id="b" fill="#fff"><use xlink:href="#a"/></mask><path d="M94.46 37.318c10.223 0 18.54-8.341 18.54-18.594C113 8.47 104.683.129 94.46.129H61.577a2.21 2.21 0 00-2.207 2.214 2.21 2.21 0 002.207 2.214h26.198v11.217A45.05 45.05 0 0172.857 49.29H30.23c.065-.064.132-.125.196-.19 2.554-2.56 4.161-5.794 4.525-9.104.384-3.492-.64-6.656-2.887-8.91-3.557-3.566-9.333-3.852-14.267-1.141a44.925 44.925 0 01-2.282-14.17V4.556h26.198a2.21 2.21 0 002.207-2.214A2.21 2.21 0 0041.713.129H13.308A2.21 2.21 0 0011.1 2.343v13.431c0 5.82 1.008 11.52 2.994 16.965-2.55 2.56-4.153 5.79-4.516 9.095-.308 2.796.29 5.38 1.693 7.456H2.207A2.21 2.21 0 000 51.503c0 7.08 5.743 12.84 12.8 12.84h6.844c1.025 5.045 5.484 8.854 10.813 8.854h42.375c5.329 0 9.788-3.81 10.813-8.855h6.843c7.058 0 12.801-5.76 12.801-12.839a2.21 2.21 0 00-2.207-2.213H79.138a49.4 49.4 0 008.128-11.972h7.195zm-63.896 2.193c-.254 2.312-1.412 4.607-3.259 6.46-1.847 1.852-4.135 3.013-6.44 3.268a7.588 7.588 0 01-2.351-.09c-.23-2.759 1.546-5.373 4.306-6.092 3.643-.949 6.312-3.77 7.257-7.169.463 1.053.634 2.289.487 3.623zm-16.599 2.808c.255-2.312 1.412-4.607 3.259-6.46 2.177-2.182 4.904-3.332 7.343-3.332.498 0 .982.049 1.448.146.235 2.761-1.542 5.38-4.306 6.1-3.641.949-6.312 3.771-7.256 7.17-.462-1.054-.634-2.29-.488-3.624zm76.523 17.596H81.66a2.21 2.21 0 00-2.207 2.214c0 3.661-2.97 6.64-6.621 6.64H30.457c-3.65 0-6.621-2.979-6.621-6.64a2.21 2.21 0 00-2.207-2.214H12.8c-3.861 0-7.121-2.63-8.093-6.198H98.58c-.97 3.568-4.23 6.198-8.092 6.198zm3.973-55.358c7.789 0 14.125 6.354 14.125 14.167 0 7.812-6.336 14.167-14.125 14.167h-5.318a49.608 49.608 0 001.622-5.313h3.696c4.868 0 8.828-3.972 8.828-8.854 0-4.883-3.96-8.855-8.828-8.855h-2.273V4.557h2.273zm-2.273 9.74h2.273c2.434 0 4.414 1.985 4.414 4.427 0 2.44-1.98 4.427-4.414 4.427h-2.827a49.8 49.8 0 00.554-7.377v-1.478z" fill="#4A4A4A" mask="url(#b)"/></g><path d="M67.888 30.974a2.22 2.22 0 000 3.132c.431.432.996.648 1.56.648.566 0 1.13-.216 1.561-.648 3.897-3.91 3.897-10.27 0-14.179a5.57 5.57 0 01-1.635-3.958c0-1.495.58-2.9 1.635-3.958a2.22 2.22 0 000-3.131 2.204 2.204 0 00-3.121 0 9.973 9.973 0 00-2.928 7.089 9.973 9.973 0 002.928 7.09 5.615 5.615 0 010 7.915z" fill="#4A4A4A"/><g fill="#4A4A4A"><path d="M32.28 30.974a2.22 2.22 0 000 3.132c.431.432.996.648 1.561.648s1.129-.216 1.56-.648c3.898-3.91 3.898-10.27 0-14.179a5.616 5.616 0 010-7.916 2.22 2.22 0 000-3.131 2.204 2.204 0 00-3.121 0c-3.898 3.91-3.898 10.269 0 14.179a5.615 5.615 0 010 7.915zM50.083 30.974a2.222 2.222 0 000 3.132c.432.432.996.648 1.562.648a2.2 2.2 0 001.56-.648c5.029-5.044 5.029-13.25 0-18.295a8.464 8.464 0 01-2.485-6.016c0-2.272.883-4.409 2.486-6.016.86-.864.86-2.266 0-3.131a2.206 2.206 0 00-3.123 0 12.872 12.872 0 00-3.777 9.147c0 3.456 1.342 6.704 3.777 9.148 3.309 3.317 3.309 8.715 0 12.031z"/></g><path d="M51.5 40c-.658 0-1.302.264-1.767.73A2.522 2.522 0 0049 42.5c0 .658.267 1.302.733 1.767.465.465 1.11.733 1.767.733.658 0 1.302-.268 1.767-.733.465-.465.733-1.11.733-1.767 0-.66-.267-1.303-.733-1.77A2.514 2.514 0 0051.5 40z" fill="#4A4A4A"/></g></svg>