<svg xmlns="http://www.w3.org/2000/svg" xmlns:xlink="http://www.w3.org/1999/xlink" viewBox="0 0 461 405"><defs><path id="a" d="M0 .662h460.291V403H0z"/></defs><g fill="none" fill-rule="evenodd"><g transform="translate(0 .338)"><mask id="b" fill="#fff"><use xlink:href="#a"/></mask><path d="M459.505 147.677c-19.353-199.359-347.576-189.66-439.36-9.062-59.057 116.2 19.382 216.432 135.98 246.127 56.916 14.497 159.323 30.303 221.188 4.536-19.89-9.57-46.655-23.424-56.482-41.83 3.88-1.44 7.97-3.015 11.552-5.166 79.232-47.573 135.268-110.693 127.122-194.605" fill="#FEFEFE" mask="url(#b)"/></g><g fill="#323232"><path d="M89.105 216.511s-5.772 4.932-15.696 6.25c-16.517 2.19-28.92-7.18-30.835-21.615-1.87-14.088 8.524-26.767 22.959-28.683 10.687-1.418 17.736 1.673 17.736 1.673l-2.007 7.752s-6.878-2.336-13.194-1.498c-11.45 1.52-17.502 9.667-16.176 19.661 1.299 9.785 9.752 16.008 19.884 14.663 8.259-1.096 13.715-5.21 13.715-5.21l3.614 7.007zM127.007 207.879c9.438-1.252 15.79-9.793 14.473-19.718-1.327-9.993-9.34-16.628-19.124-15.329-9.647 1.28-15.79 9.794-14.465 19.787 1.3 9.785 9.677 16.513 19.116 15.26m-5.752-42.811c15.128-2.007 27.502 7.156 29.437 21.73 1.906 14.365-7.83 26.675-22.75 28.655-14.922 1.98-27.454-7.303-29.369-21.739-1.87-14.088 8.038-26.702 22.682-28.646M174.872 166.852l2.533 19.084 6.385-.847c8.05-1.07 10.255-5.74 9.546-11.083-.71-5.343-3.959-9.08-12.079-8.002l-6.385.848zm-9.655-6.77l15.614-2.072c12.978-1.722 20.451 4.56 21.805 14.762.672 5.066-.947 12.555-7.048 16.613 4.102 2.704 5.816 7.632 11.645 6.859l1.944-.26 1.013 7.636s-1.749.655-4.594 1.033c-12.146 1.612-12.934-9.654-19.276-12.202-.823.18-1.656.29-2.558.41l-5.344.71 1.88 14.157-8.606 1.142-6.475-48.788zM220.624 152.446l2.705-.359 34.362 27.431-4.135-31.16 8.605-1.142 6.521 49.134-2.29.304-34.667-26.543 4.015 30.258-8.604 1.142zM283.113 144.436l31.714-4.209 1.05 7.911-23.11 3.067 1.816 13.672 20.958-2.78 1.013 7.632-20.96 2.782 1.549 11.66 23.11-3.068 1.049 7.911-31.714 4.21zM333.837 137.704l31.716-4.209 1.05 7.911-23.11 3.067 1.814 13.672 20.96-2.78 1.011 7.632-20.958 2.782 1.547 11.66 23.111-3.068 1.05 7.911-31.716 4.21zM384.563 130.972l8.606-1.142 5.425 40.876 23.11-3.067 1.049 7.911-31.715 4.21z"/></g><path d="M179.865 256.83c4.723-.598 7.924-4.85 7.295-9.814-.633-5.001-4.62-8.342-9.517-7.721-4.826.61-7.924 4.849-7.29 9.85.62 4.897 4.789 8.285 9.512 7.686m-2.749-21.421c7.57-.96 13.73 3.658 14.654 10.95.911 7.19-3.994 13.315-11.46 14.26-7.466.946-13.704-3.732-14.619-10.955-.893-7.05 4.098-13.327 11.425-14.255M199.094 232.907l1.354-.172 17.099 13.818-1.975-15.592 4.306-.545L222.993 255l-1.146.145-17.254-13.374 1.918 15.14-4.306.547zM230.363 229.087l4.306-.545 2.59 20.453 11.565-1.465.501 3.959-15.87 2.01zM253.591 226.144l4.306-.546 3.093 24.412-4.306.546zM268.365 224.13l1.353-.172 17.1 13.819-1.974-15.592 4.305-.546 3.115 24.585-1.146.145-17.255-13.374 1.918 15.142-4.305.546zM299.633 220.31l15.87-2.01.501 3.958-11.563 1.465.867 6.841 10.486-1.328.484 3.82-10.487 1.328.74 5.834 11.563-1.465.502 3.96-15.87 2.01z" fill="#323232"/></g></svg>