<svg xmlns="http://www.w3.org/2000/svg" viewBox="0 0 92 159"><g fill="#4A4A4A" fill-rule="nonzero"><path d="M46.5 74C57.804 74 67 64.804 67 53.5S57.804 33 46.5 33 26 42.196 26 53.5 35.196 74 46.5 74zm0-37.583c9.42 0 17.083 7.663 17.083 17.083 0 9.42-7.663 17.083-17.083 17.083-9.42 0-17.083-7.663-17.083-17.083 0-9.42 7.663-17.083 17.083-17.083z"/><path d="M51.269 57.258c.492.768 1.486.971 2.219.462l4.8-3.333c.946-.658.952-2.112 0-2.774l-4.8-3.333c-.736-.51-1.729-.304-2.22.462-.49.766-.29 1.801.445 2.312L54.516 53l-2.803 1.947c-.736.51-.934 1.545-.444 2.31zM40.731 57.258c.49-.766.292-1.8-.444-2.311L37.484 53l2.803-1.946c.736-.511.934-1.546.444-2.312-.49-.766-1.484-.973-2.219-.462l-4.8 3.333c-.948.658-.95 2.114 0 2.774l4.8 3.333c.732.508 1.727.307 2.22-.462zM42.14 64.912c.872.299 1.816-.185 2.108-1.085l6.666-20.57c.291-.899-.18-1.87-1.054-2.169-.871-.298-1.817.186-2.108 1.085l-6.666 20.57c-.291.898.18 1.87 1.054 2.169zM23.303 104.767l5.388 1.203c.374 1.306.893 2.56 1.553 3.747l-2.959 4.674a1.667 1.667 0 00.23 2.07l3.023 3.024a1.668 1.668 0 002.07.23l4.676-2.96c1.193.66 2.446 1.18 3.745 1.553l1.204 5.389c.17.761.846 1.303 1.627 1.303h4.28c.78 0 1.457-.542 1.627-1.303l1.203-5.389a17.765 17.765 0 003.747-1.552l4.674 2.959c.66.417 1.519.321 2.07-.23l3.024-3.024a1.667 1.667 0 00.23-2.07l-2.96-4.675a17.902 17.902 0 001.553-3.745l5.389-1.204A1.667 1.667 0 0070 103.14v-4.28c0-.78-.542-1.457-1.303-1.627l-5.389-1.204a17.93 17.93 0 00-1.553-3.745l2.96-4.675a1.667 1.667 0 00-.23-2.07l-3.024-3.024a1.667 1.667 0 00-2.072-.228l-4.672 2.965a17.942 17.942 0 00-3.745-1.556l-1.205-5.393A1.667 1.667 0 0048.14 77h-4.28c-.78 0-1.457.542-1.627 1.303l-1.204 5.393c-1.313.38-2.566.9-3.746 1.556l-4.672-2.965a1.666 1.666 0 00-2.072.228l-3.024 3.024a1.667 1.667 0 00-.23 2.07l2.96 4.675a17.898 17.898 0 00-1.553 3.745l-5.389 1.204A1.667 1.667 0 0022 98.86v4.28c0 .78.541 1.457 1.303 1.627zm2.03-4.572l5.085-1.135a1.666 1.666 0 001.264-1.266 14.604 14.604 0 011.926-4.648 1.667 1.667 0 000-1.783l-2.793-4.41 1.137-1.137 4.41 2.8a1.666 1.666 0 001.79-.003 14.645 14.645 0 014.65-1.934 1.667 1.667 0 001.258-1.262l1.136-5.084h1.609l1.136 5.084c.14.629.63 1.12 1.257 1.262 1.672.38 3.236 1.03 4.65 1.934.546.349 1.244.35 1.79.003l4.41-2.8 1.137 1.137-2.792 4.41a1.667 1.667 0 000 1.782 14.617 14.617 0 011.926 4.65c.14.63.632 1.124 1.264 1.265l5.084 1.135v1.61l-5.084 1.135a1.666 1.666 0 00-1.264 1.265 14.615 14.615 0 01-1.927 4.65 1.667 1.667 0 000 1.782l2.793 4.41-1.138 1.137-4.41-2.792a1.666 1.666 0 00-1.786.002 14.47 14.47 0 01-4.645 1.924 1.666 1.666 0 00-1.265 1.264l-1.136 5.084h-1.61l-1.135-5.084a1.666 1.666 0 00-1.265-1.264 14.614 14.614 0 01-4.649-1.926 1.667 1.667 0 00-1.783 0l-4.41 2.793-1.137-1.138 2.792-4.41a1.667 1.667 0 00-.002-1.786 14.478 14.478 0 01-1.924-4.645 1.666 1.666 0 00-1.264-1.266l-5.085-1.135v-1.61z"/><path d="M46.005 107A6.002 6.002 0 0052 101.005C52 97.693 49.31 95 46.005 95A6.011 6.011 0 0040 101.005c0 3.305 2.694 5.995 6.005 5.995zm0-8.64a2.643 2.643 0 012.635 2.645 2.638 2.638 0 01-2.635 2.635 2.643 2.643 0 01-2.645-2.635 2.648 2.648 0 012.645-2.645z"/><path d="M46.505 113C53.395 113 59 107.395 59 100.505 59 93.61 53.395 88 46.505 88 39.61 88 34 93.61 34 100.505 34 107.395 39.61 113 46.505 113zm0-21.502c4.961 0 8.998 4.04 8.998 9.007 0 4.961-4.037 8.998-8.998 8.998-4.967 0-9.008-4.037-9.008-8.998 0-4.967 4.041-9.007 9.008-9.007zM46.5 141a6.507 6.507 0 00-6.5 6.5c0 3.584 2.916 6.5 6.5 6.5s6.5-2.916 6.5-6.5-2.916-6.5-6.5-6.5zm0 9.75a3.254 3.254 0 01-3.25-3.25 3.253 3.253 0 013.25-3.25 3.253 3.253 0 013.25 3.25 3.254 3.254 0 01-3.25 3.25zM53.311 10H39.69c-.933 0-1.689.896-1.689 2s.756 2 1.689 2H53.31c.933 0 1.689-.896 1.689-2s-.756-2-1.689-2z"/><path d="M76.553 0H15.447C6.929 0 0 6.88 0 15.336v128.328C0 152.12 6.93 159 15.447 159h61.106C85.071 159 92 152.12 92 143.664V15.336C92 6.88 85.07 0 76.553 0zm12.04 135.32H3.407V23.68h85.186V135.32zm-12.04 20.297H15.447c-6.639 0-12.04-5.362-12.04-11.953v-4.962h85.186v4.962c0 6.59-5.401 11.953-12.04 11.953zm12.04-135.319H3.407v-4.962c0-6.59 5.401-11.953 12.04-11.953h61.106c6.639 0 12.04 5.362 12.04 11.953v4.962z"/><path d="M8.717 132h75.566c.948 0 1.717-.758 1.717-1.694V28.694c0-.936-.769-1.694-1.717-1.694H8.717C7.77 27 7 27.758 7 28.694v101.613c0 .935.769 1.693 1.717 1.693zM82.565 30.387v37.258h-8.587c-.948 0-1.717.759-1.717 1.694 0 .935.769 1.693 1.717 1.693h8.587v3.387h-8.587c-.948 0-1.717.759-1.717 1.694 0 .935.769 1.693 1.717 1.693h8.587v3.388h-8.587c-.948 0-1.717.758-1.717 1.693 0 .936.769 1.694 1.717 1.694h8.587v44.032h-72.13V84.581h8.587c.948 0 1.717-.758 1.717-1.694 0-.935-.769-1.693-1.717-1.693h-8.587v-3.388h8.587c.948 0 1.717-.758 1.717-1.693s-.769-1.694-1.717-1.694h-8.587v-3.387h8.587c.948 0 1.717-.758 1.717-1.693s-.769-1.694-1.717-1.694h-8.587V30.387h72.13z"/></g></svg>