<svg xmlns="http://www.w3.org/2000/svg" xmlns:xlink="http://www.w3.org/1999/xlink" viewBox="0 0 135 116"><defs><path id="a" d="M.02.13H116.143v115.541H.02z"/></defs><g fill="none" fill-rule="evenodd"><path d="M49.254 89.41a1.979 1.979 0 001.837 1.248h17.214a1.982 1.982 0 001.978-1.986v-7.899a1.982 1.982 0 00-1.978-1.986h-8.939c-.508 0-.996.197-1.363.548l-8.276 7.9a1.99 1.99 0 00-.473 2.175zm10.902-6.651h6.171v3.928H56.04l4.116-3.928z" fill="#4A4A4A"/><path d="M37.375 37.983H23.24c-2.999 0-5.44 2.449-5.44 5.458v41.281c0 6.922 5.612 12.553 12.508 12.553H70.1c3.736 0 6.777-3.052 6.777-6.8V78.971c0-3.75-3.041-6.802-6.777-6.802H61.68l6.324-6.038a6.76 6.76 0 002.105-4.757 6.778 6.778 0 00-1.864-4.858l-7.897-8.334a6.767 6.767 0 00-9.581-.242l-7.954 7.594V43.44c0-3.01-2.44-5.458-5.44-5.458zm1.483 46.739v.124l-.002.036-.002.092v.035l-.004.098-.002.024a8.615 8.615 0 01-.523 2.577l-.027.071-.03.075a.154.154 0 00-.006.018c-1.203 3.047-4.094 5.244-7.509 5.42h-.012l-.096.004-.009.002-.102.002h-.017l-.084.003h-.124c-4.715.001-8.552-3.848-8.552-8.581v-9.285H38.86v9.285h-.001zm0-13.255h-17.1V43.44c0-.821.665-1.488 1.482-1.488h14.135c.817 0 1.483.667 1.483 1.488v28.026zM70.1 76.14a2.83 2.83 0 012.82 2.831v11.501a2.83 2.83 0 01-2.82 2.831H39.542l17.98-17.163H70.1zM53.495 50.819a2.815 2.815 0 013.987.1l7.897 8.334c.52.547.795 1.266.776 2.021a2.808 2.808 0 01-.876 1.98L42.814 84.702V61.014l10.68-10.195z" fill="#4A4A4A"/><path d="M46.65 75.727a1.962 1.962 0 002.142-.386L62.161 62.58a1.991 1.991 0 00.07-2.808l-5.423-5.724a1.975 1.975 0 00-1.384-.616 2 2 0 00-1.412.546l-7.945 7.584A1.984 1.984 0 0045.452 63v10.903c0 .793.47 1.511 1.197 1.824zm2.757-11.874l5.897-5.63 2.697 2.848-8.594 8.203v-5.421z" fill="#4A4A4A"/><g><mask id="b" fill="#fff"><use xlink:href="#a"/></mask><path d="M34.68 43.674h-8.966a1.98 1.98 0 00-1.978 1.985v21.97a1.98 1.98 0 001.978 1.985h8.966a1.982 1.982 0 001.978-1.986V45.66a1.982 1.982 0 00-1.978-1.985zm-6.99 21.97h5.012v-18H27.69v18z" fill="#4A4A4A" mask="url(#b)"/><path d="M112.29.13h-7.535a3.863 3.863 0 00-3.852 3.867v1.296l-16.626.017c-.476 0-.936.173-1.295.487L63.668 22.65a47.218 47.218 0 00-16.066-2.8C21.355 19.85 0 41.284 0 67.628c0 14.853 6.709 28.607 18.405 37.736a1.973 1.973 0 002.776-.348 1.99 1.99 0 00-.347-2.786C10.107 93.858 3.955 81.247 3.955 67.628c0-24.154 19.58-43.807 43.647-43.807s43.646 19.653 43.646 43.807c0 24.157-19.58 43.809-43.646 43.809a43.616 43.616 0 01-20.257-4.997 1.975 1.975 0 00-2.672.834 1.99 1.99 0 00.832 2.681 47.575 47.575 0 0022.096 5.452c26.249 0 47.603-21.433 47.603-47.779 0-19.119-11.247-35.652-27.45-43.281L85.018 9.28l15.883-.016v102.54a3.864 3.864 0 003.854 3.867h7.534a3.865 3.865 0 003.854-3.866V27.659a1.982 1.982 0 00-1.978-1.985 1.98 1.98 0 00-1.978 1.985v84.043h-7.33V4.1h7.33v15.618a1.98 1.98 0 001.978 1.984 1.981 1.981 0 001.978-1.984V3.997A3.862 3.862 0 00112.29.131z" fill="#4A4A4A" mask="url(#b)"/></g><path d="M131.015.13h-7.535a3.863 3.863 0 00-3.853 3.867v7.564a3.864 3.864 0 003.853 3.866h7.535a3.865 3.865 0 003.854-3.866V3.997a3.864 3.864 0 00-3.854-3.866zm-7.433 11.328h7.33V4.1h-7.33v7.357zM131.015 19.983h-7.535a3.863 3.863 0 00-3.853 3.867v7.563c0 2.133 1.729 3.867 3.853 3.867h7.535a3.865 3.865 0 003.854-3.867V23.85a3.864 3.864 0 00-3.854-3.867zm-7.433 11.327h7.33v-7.357h-7.33v7.357zM131.015 39.836h-7.535c-2.125 0-3.853 1.735-3.853 3.866v7.564c0 2.132 1.729 3.867 3.853 3.867h7.535a3.865 3.865 0 003.854-3.867v-7.564a3.865 3.865 0 00-3.854-3.866zm-7.433 11.326h7.33v-7.357h-7.33v7.357zM131.015 59.688h-7.535c-2.125 0-3.853 1.735-3.853 3.866v7.564c0 2.133 1.729 3.868 3.853 3.868h7.535a3.865 3.865 0 003.854-3.868v-7.564a3.865 3.865 0 00-3.854-3.866zm-7.433 11.326h7.33V63.66h-7.33v7.355zM131.015 79.54h-7.535c-2.125 0-3.853 1.735-3.853 3.868v7.562c0 2.133 1.729 3.868 3.853 3.868h7.535a3.865 3.865 0 003.854-3.868v-7.562a3.865 3.865 0 00-3.854-3.868zm-7.433 11.328h7.33v-7.357h-7.33v7.357zM131.015 99.393h-7.535c-2.125 0-3.853 1.735-3.853 3.867v7.563c0 2.134 1.729 3.867 3.853 3.867h7.535a3.865 3.865 0 003.854-3.867v-7.563a3.865 3.865 0 00-3.854-3.867zm-7.433 11.328h7.33v-7.358h-7.33v7.358zM30.5 90c3.032 0 5.5-2.467 5.5-5.5S33.532 79 30.5 79a5.505 5.505 0 00-5.5 5.5c0 3.033 2.467 5.5 5.5 5.5zm0-7.163c.916 0 1.662.746 1.662 1.663s-.746 1.663-1.663 1.663a1.665 1.665 0 01-1.663-1.663c0-.917.746-1.663 1.663-1.663z" fill="#4A4A4A"/></g></svg>