<svg xmlns="http://www.w3.org/2000/svg" viewBox="0 0 146 194"><g fill="#FFF" fill-rule="evenodd"><path d="M20.047 181.675l.005.033.012.052.001.005c.054.25.14.489.255.708l.004.01.022.038c.207.385.496.706.835.949l.015.01.03.02c.008.008.02.014.029.021h.002c.302.206.646.351 1.016.424l.027.005.026.006c.162.027.327.044.492.044l.063-.002h62.237l.063.002a2.678 2.678 0 00.524-.05l.017-.003a2.808 2.808 0 001.121-.494l.03-.022c.3-.228.557-.516.752-.856l.016-.031.012-.019a2.82 2.82 0 00.28-.76l.002-.005.011-.052.006-.033.005-.024c.032-.185.046-.37.043-.55v-22.2a2.832 2.832 0 00-.045-.553l-.003-.024-.006-.032a2.547 2.547 0 00-.01-.053l-.003-.004a2.759 2.759 0 00-.299-.791l-.009-.017a2.826 2.826 0 00-.75-.856l-.012-.008-.03-.023-.03-.022-.013-.007a2.778 2.778 0 00-1.07-.457 2.855 2.855 0 00-.604-.054H22.875a3.165 3.165 0 00-.48.032c-.001.002-.004.002-.008.002l-.024.005a2.792 2.792 0 00-1.223.52l-.029.022a.179.179 0 00-.03.024l-.012.007c-.275.22-.514.494-.695.814v.001l-.013.023a2.774 2.774 0 00-.296.785l-.001.004-.012.053a1.33 1.33 0 00-.005.032l-.005.024c-.032.185-.046.37-.04.552v22.2a2.77 2.77 0 00.04.55l.005.025zM39 178l15-5 15 5H39zm43-1l-20-7 20-7v14zm-13-15l-15 5-15-5h30zm-43 1l20 7-20 7v-14zM22.83 151h34.34c1.564 0 2.83-1.342 2.83-2.999S58.734 145 57.17 145H22.83c-1.564 0-2.83 1.342-2.83 3.001 0 1.657 1.266 2.999 2.83 2.999zM85.231 145h-18.46c-1.53 0-2.771 1.342-2.771 3.001 0 1.657 1.239 2.999 2.77 2.999h18.461c1.53 0 2.769-1.342 2.769-2.999S86.761 145 85.231 145zM50.831 142h34.34c1.563 0 2.829-1.343 2.829-3s-1.266-3-2.83-3H50.831c-1.563 0-2.831 1.343-2.831 3 .002 1.657 1.268 3 2.831 3zM22.782 142h17.436c1.537 0 2.782-1.343 2.782-3s-1.245-3-2.782-3H22.782c-1.537 0-2.782 1.343-2.782 3s1.245 3 2.782 3z"/><path d="M145.52 100.497a2.823 2.823 0 00-2.345-1.25h-37.866c-.05 0-.105.002-.156.006L99.9 93.99a5.766 5.766 0 00-4.106-1.703 5.766 5.766 0 00-4.109 1.703l-1.994 2c-.048.048-.127.055-.2.018-1.7-.879-3.49-1.621-5.32-2.204-.075-.024-.125-.085-.125-.155v-2.827c0-3.21-2.607-5.821-5.81-5.821H69.14c-3.203 0-5.808 2.612-5.808 5.82v2.828c0 .07-.05.131-.126.155a34.373 34.373 0 00-5.32 2.204c-.072.037-.151.03-.2-.02l-1.994-1.996a5.767 5.767 0 00-4.108-1.705c-1.55 0-3.01.605-4.108 1.703l-5.292 5.303a2.757 2.757 0 00-.493-.045H3.825c-.94 0-1.82.469-2.343 1.25a2.836 2.836 0 00-.275 2.645l9.514 23.466-.002.084v60.201c0 3.368 2.736 6.107 6.096 6.107h113.369c3.361 0 6.096-2.74 6.096-6.107v-60.2c0-.028 0-.056-.002-.085l9.513-23.466a2.831 2.831 0 00-.272-2.645zm-137.498 4.41h31.33c.045.762.24 1.505.575 2.19l.001.006.054.105.015.03.042.079.026.046.026.048c.014.026.03.05.044.074l.022.038c.016.028.031.054.048.08l.022.035c.016.027.034.053.051.08l.022.034.048.072c.01.011.017.024.026.035a.882.882 0 00.048.068l.027.039.05.068c.01.011.017.022.026.033l.055.072.03.037.055.068.033.04.053.064.039.043.044.049.05.055.035.037.062.066.031.031.034.035.413.413.11.109 1.053 2.555-.027.057c-.024.05-.046.101-.07.15a4.23 4.23 0 00-.063.134l-.066.141-.04.089c-.032.066-.061.134-.093.203l-.038.088-.09.201-.033.078-.074.17a.858.858 0 01-.035.08c-.03.072-.059.144-.09.214l-.032.08-.091.22c-.008.017-.013.033-.02.05l-.078.194-.03.073-.086.222-.028.071-.08.212-.026.067c-.024.068-.05.134-.074.2-.007.023-.017.045-.024.067a10.91 10.91 0 00-.08.227l-.028.072-.078.22-.014.047c-.026.074-.052.147-.077.223l-.019.055c-.028.081-.053.16-.079.24-.007.018-.013.037-.018.055l-.081.252c-.026.078-.085.126-.155.126h-2.824c-3.203 0-5.808 2.612-5.808 5.82v1.728H15.707l-7.685-18.96zm84.741 82.433H16.817a.446.446 0 01-.446-.447v-57.371h76.394v57.818h-.002zm-34.831-63.477c1.337-7.498 7.894-13.206 15.756-13.206 7.864 0 14.419 5.708 15.758 13.206H57.932zm15.756-18.865c-10.984 0-20.084 8.234-21.473 18.865H37.721v-1.727a.16.16 0 01.16-.16h2.822a5.8 5.8 0 005.538-4.068c.061-.192.124-.383.19-.574.057-.169.116-.338.178-.506l.044-.124a28.69 28.69 0 011.424-3.247l.012-.02.02-.043a5.817 5.817 0 00-1.077-6.735l-1.052-1.056c-.008-.006-.013-.013-.02-.02l-.922-.924c-.06-.06-.042-.14-.035-.162l.009-.028a.113.113 0 01.028-.033l6.432-6.444c.013-.012.046-.047.112-.047s.1.035.112.047l1.995 1.997a5.792 5.792 0 006.787 1.046 28.509 28.509 0 014.443-1.839 5.809 5.809 0 004.06-5.548v-2.83a.16.16 0 01.16-.158h9.097c.086 0 .16.072.16.159v2.829a5.809 5.809 0 004.06 5.548 28.66 28.66 0 014.444 1.84 5.79 5.79 0 006.785-1.047l1.995-1.999c.012-.01.045-.045.112-.045.066 0 .101.035.112.047l5.685 5.694-7.058 17.11c-2.572-9.107-10.943-15.798-20.845-15.798zm56.943 81.895c0 .248-.2.447-.447.447h-31.77v-57.818h32.217v57.371zm.663-63.03H99.38l7.82-18.955h31.78l-7.686 18.955zM5.83 25.195A2.825 2.825 0 003 28.017C3 36.83 10.193 44 19.038 44h3.018a22.14 22.14 0 0019.277-11.283h12.705a2.824 2.824 0 002.83-2.82 2.825 2.825 0 00-2.83-2.82H39.592c-1.11 0-2.118.648-2.577 1.657-2.656 5.846-8.528 9.624-14.96 9.624h-3.017c-4.741 0-8.75-3.185-9.986-7.52h11.494c.854 0 1.66-.385 2.197-1.044l4.906-6.017a2.81 2.81 0 000-3.556l-4.906-6.017a2.83 2.83 0 00-2.195-1.043H9.052a10.392 10.392 0 019.986-7.521h3.02c6.942 0 13.162 4.383 15.475 10.907a2.833 2.833 0 002.67 1.879h65.595c1.2 0 2.269-.753 2.67-1.88C110.78 10.024 117 5.64 123.944 5.64h3.017c4.742 0 8.751 3.185 9.986 7.521h-11.494c-.853 0-1.659.384-2.197 1.043l-4.905 6.017a2.814 2.814 0 000 3.556l4.905 6.019a2.833 2.833 0 002.197 1.041h11.494a10.39 10.39 0 01-9.986 7.521h-3.017c-6.432 0-12.304-3.777-14.96-9.624a2.83 2.83 0 00-2.577-1.657h-41.05a2.825 2.825 0 00-2.83 2.82 2.825 2.825 0 002.83 2.822h39.31A22.143 22.143 0 00123.945 44h3.017C135.807 44 143 36.83 143 28.017a2.824 2.824 0 00-2.83-2.82H126.8l-2.607-3.196 2.607-3.196h13.37a2.824 2.824 0 002.83-2.82C143 7.17 135.807.001 126.962.001h-3.017c-8.653 0-16.472 5.061-20.048 12.786H42.103C38.53 5.061 30.711 0 22.058 0h-3.02C10.195 0 3 7.17 3 15.983a2.824 2.824 0 002.83 2.82H19.2l2.607 3.196-2.607 3.196H5.83z"/><path d="M76 42.762C76 41.237 74.656 40 72.999 40 71.342 40 70 41.237 70 42.762v8.474C70 52.763 71.342 54 72.999 54S76 52.763 76 51.236v-8.474zM72.999 62C71.342 62 70 63.236 70 64.762v8.474C70 74.762 71.342 76 72.999 76S76 74.762 76 73.236v-8.474C76 63.236 74.656 62 72.999 62z"/></g></svg>