<svg xmlns="http://www.w3.org/2000/svg" xmlns:xlink="http://www.w3.org/1999/xlink" viewBox="0 0 135 124"><defs><path id="a" d="M0 0h135v123.187H0z"/></defs><g fill="none" fill-rule="evenodd"><mask id="b" fill="#fff"><use xlink:href="#a"/></mask><path d="M93.96 73.374a29.95 29.95 0 003.549-11.86c.14-1.665.142-3.337.002-5.004l-.003-.038-.007-.08a29.921 29.921 0 00-3.45-11.587c0-.003-.002-.004-.003-.007l-.07-.13a4.636 4.636 0 00-.075-.136 29.83 29.83 0 00-4.945-6.61l-.154-.154c-11.748-11.71-30.862-11.71-42.609 0-11.747 11.71-11.747 30.765 0 42.475 5.874 5.855 13.589 8.783 21.305 8.783 7.715 0 15.43-2.928 21.304-8.783.057-.056.113-.115.17-.172a29.851 29.851 0 004.929-6.59l.058-.107zm-8.17-33.002a.775.775 0 01.024.024l.121.124.048.05.128.133.036.038c.04.044.082.087.123.13l.063.068.075.08.29.32.014.017a26.458 26.458 0 013.556 5.08c.02.04.04.077.061.115.005.01.01.022.017.032H67.5v-6.21h18.29zm4.454 31.247a26.496 26.496 0 01-3.667 5.213l-.017.017c-.093.105-.19.21-.286.312l-.086.092-.054.059-.142.148a18.246 18.246 0 01-.157.161l-.017.018H67.5v-6.211h22.846l-.102.191zm1.778-4.358H67.486c-2.04 0-3.7 1.657-3.7 3.695V77.5a3.703 3.703 0 003.7 3.695h13.332c-9.964 5.985-23.12 4.692-31.707-3.88a26.074 26.074 0 01-2.35-2.693h6.517c2.6 0 4.716-2.113 4.716-4.708v-6.2c0-1.09-.884-1.972-1.974-1.972-1.09 0-1.975.882-1.975 1.972v6.2c0 .421-.344.765-.767.765h-8.979c-3.69-7.316-3.68-16.086.026-23.394h8.954c.423 0 .766.343.766.765v7.778a1.974 1.974 0 003.95 0v-7.778a4.718 4.718 0 00-4.716-4.708H46.8c.7-.92 1.47-1.805 2.312-2.644 5.055-5.048 11.696-7.571 18.336-7.571 4.606 0 9.213 1.214 13.29 3.644H67.486c-2.04 0-3.7 1.657-3.7 3.695v6.54a3.702 3.702 0 003.7 3.695h24.52c.146.436.28.874.404 1.315H67.486c-2.04 0-3.7 1.658-3.7 3.695v6.542a3.703 3.703 0 003.7 3.695h24.937c-.122.44-.256.88-.401 1.314zm1.264-5.15H67.5V55.9h25.78a27.01 27.01 0 01.006 6.21z" fill="#4A4A4A" mask="url(#b)"/><path d="M122.738 88.67c-6.061 0-11.11 4.412-12.088 10.188H96.474l-9.173-9.156a36.507 36.507 0 005.602-4.453h28.891a2.922 2.922 0 002.922-2.915v-4.43a2.921 2.921 0 00-2.922-2.916H100.34a36.274 36.274 0 001.54-3.683h19.916a2.92 2.92 0 002.92-2.915v-4.433a2.92 2.92 0 00-2.92-2.915h-17.872c.066-1.227.07-2.456.011-3.683h17.86a2.92 2.92 0 002.92-2.915v-4.431a2.92 2.92 0 00-2.92-2.915h-19.84a36.169 36.169 0 00-1.512-3.684h21.353a2.922 2.922 0 002.92-2.915v-4.432a2.92 2.92 0 00-2.92-2.914H93.123C82.916 23.1 68.204 20.278 55.467 24.68L41.075 10.32a1.977 1.977 0 00-1.367-.577c-.041-.001-4.142-.066-8.22-.097-3.702-.03-5.895-.046-7.244-.003C23.05 4.137 18.13 0 12.26 0 5.5 0 0 5.488 0 12.235c0 6.746 5.5 12.234 12.26 12.234 6.3 0 11.505-4.765 12.186-10.874 2.45-.054 8.64-.006 14.398.081l12.667 12.64a36.385 36.385 0 00-9.858 7.009 36.204 36.204 0 00-9.167 15.352h-7.239a4.153 4.153 0 00-4.153 4.144v13.022a4.153 4.153 0 004.153 4.145h7.385a36.138 36.138 0 005.323 10.563l-4.673 4.662a4.742 4.742 0 00-4.577 1.22L5.137 109.95a5.128 5.128 0 00-1.517 3.656c0 1.38.538 2.678 1.517 3.655l4.42 4.41a5.153 5.153 0 003.662 1.515 5.154 5.154 0 003.665-1.515L40.45 98.155a4.718 4.718 0 001.222-4.569l4.734-4.724c6.288 4.438 13.68 6.656 21.07 6.656a36.655 36.655 0 0016.26-3.79l10.521 10.498c.37.37.874.578 1.398.578h14.97c.918 5.847 6 10.336 12.114 10.336 6.76 0 12.261-5.488 12.261-12.235 0-6.747-5.501-12.236-12.262-12.236zm-2.276-37.946v3.105H103.26a62.224 62.224 0 00-.453-3.105h17.654zM103.274 64.18h17.188v3.106h-17.654c.182-1.029.337-2.065.466-3.106zm-91.85-44.513c-4.582 0-8.309-3.715-8.309-8.281 0-4.566 3.727-8.281 8.308-8.281 4.581 0 8.308 3.715 8.308 8.281 0 4.566-3.727 8.281-8.308 8.281zM26.15 66.252a.194.194 0 01-.188-.2V52.994c0-.111.084-.2.188-.2h5.958a38.833 38.833 0 00.084 13.458H26.15zm95.35 12.422v3.105H96.577a49.54 49.54 0 001.515-2.706l.003-.005.083-.162.12-.232H121.5zm-1.038-42.443v3.106h-22.25c-.209-.431-.422-.86-.642-1.282l-.027-.053-.054-.101a48.751 48.751 0 00-.912-1.67h23.885zM37.159 95.346l-23.42 23.345a1.21 1.21 0 01-.861.355 1.21 1.21 0 01-.86-.355l-4.393-4.379a1.208 1.208 0 010-1.715l23.42-23.345a.77.77 0 011.091 0l5.023 5.005c.3.3.3.79 0 1.09zm1.784-5.285l-2.597-2.589 3.635-3.622 1.117 1.114.008.007a.027.027 0 00.008.008l1.463 1.458-3.634 3.624zm5.793-8.495l-.02-.02c-12.547-12.72-12.545-33.41.01-46.127A31.9 31.9 0 0167.5 25.88a31.9 31.9 0 0122.775 9.54c.1.104.2.207.302.31.021.026.043.05.066.073a32.825 32.825 0 013.23 3.953l.07.103c.002 0 .002 0 .002.002 7.557 10.998 7.662 25.693.313 36.792a32.698 32.698 0 01-3.871 4.79 6.151 6.151 0 00-.112.115c-12.556 12.715-32.981 12.72-45.54.01zm78.84 28.163c-4.58 0-8.307-3.715-8.307-8.28 0-4.568 3.727-8.283 8.307-8.283 4.582 0 8.309 3.715 8.309 8.282 0 4.566-3.727 8.281-8.309 8.281z" fill="#4A4A4A" mask="url(#b)"/></g></svg>