<svg xmlns="http://www.w3.org/2000/svg" viewBox="0 0 135 144"><g fill="#4A4A4A" fill-rule="evenodd"><path d="M19.286 48.214a2.296 2.296 0 11-4.592 0 2.296 2.296 0 014.592 0zM27.551 48.214a2.296 2.296 0 11-4.592 0 2.296 2.296 0 014.592 0zM35.8 48.428a2.264 2.264 0 11-4.53 0 2.264 2.264 0 014.53 0z"/><path d="M129.392.14H94.788a5.351 5.351 0 00-5.347 5.343v34.201H67.46L22.496 28.433a5.52 5.52 0 00-6.688 4.006l-1.817 7.245h-2.12a5.518 5.518 0 00-5.516 5.509v24.951L.287 94.35a5.467 5.467 0 00.62 4.171 5.478 5.478 0 003.39 2.512l2.057.514v7.47a5.518 5.518 0 005.516 5.508h9.82a9.668 9.668 0 002.953 5.173c-4.219 2.314-7.084 6.795-7.084 11.932v7.43h-.982a2.105 2.105 0 00-2.105 2.104c0 1.16.942 2.102 2.105 2.102H46.61a2.103 2.103 0 100-4.206h-1.825v-7.43c0-5.138-2.865-9.618-7.083-11.932a9.671 9.671 0 002.953-5.173h17.57l44.966 11.252a5.48 5.48 0 004.175-.618 5.473 5.473 0 002.514-3.387l1.816-7.247h2.122c3.04 0 5.513-2.47 5.513-5.509v-24.95l6.068-24.206a5.466 5.466 0 00-.62-4.17 5.477 5.477 0 00-3.39-2.512l-2.058-.515v-7.47a5.519 5.519 0 00-5.513-5.51H98.365l3.028-5.754h28a5.351 5.351 0 005.347-5.342V5.483A5.353 5.353 0 00129.392.14zM6.354 97.21l-1.034-.26a1.29 1.29 0 01-.802-.593 1.293 1.293 0 01-.146-.987l1.982-7.911v9.751zM119.331 57l1.034.258c.34.084.624.295.802.595.18.297.231.648.147.985l-1.983 7.911v-9.75zm-99.44-23.54a1.306 1.306 0 011.581-.947l28.66 7.17H18.33l1.56-6.222zm20.683 98.17v7.43H21.77v-7.43c0-5.18 4.218-9.395 9.402-9.395 5.185 0 9.402 4.214 9.402 9.395zM25.7 112.56v-.022l.003-.079c.053-2.959 2.507-5.368 5.47-5.368 2.963 0 5.417 2.41 5.47 5.368l.003.078v.023a5.476 5.476 0 01-5.473 5.468 5.477 5.477 0 01-5.473-5.468zm88.119-2.243h-13.109a2.105 2.105 0 100 4.207h6.646l-1.56 6.225c-.084.337-.295.62-.594.8-.298.18-.65.231-.988.147l-28.658-7.172h16.733a2.104 2.104 0 100-4.205H40.593c-.982-4.123-4.615-7.233-8.99-7.424h-.013l-.085-.004h-.04c-.021-.001-.043-.003-.066-.003l-.062-.001h-.05c-.038-.002-.077-.002-.115-.002-.037 0-.077 0-.113.002h-.051l-.063.001-.067.003h-.04l-.082.004h-.013c-4.377.191-8.008 3.3-8.99 7.424H11.87c-.72 0-1.305-.585-1.305-1.304v-51.96H115.12v51.96c0 .719-.585 1.302-1.303 1.302zm-.002-66.427c.72 0 1.305.584 1.305 1.303v7.656H10.565v-7.656c0-.72.584-1.303 1.305-1.303h77.57v1.699c0 .314.054.618.152.902l.04.107.044.102a2.6 2.6 0 00.185.345c.365.582.949 1.02 1.656 1.193l.035.009c.002 0 .006 0 .01.002l.03.007.018.004.03.005.041.009.024.004.031.005.018.003.044.007h.006a.631.631 0 00.05.007l.015.001a4.367 4.367 0 01.053.006c.018 0 .035.003.053.005h.001c.018.001.036.001.052.003h.008l.11.004h.061c.018-.002.034-.002.052-.002h.002a2.85 2.85 0 00.109-.005l.01-.002a.402.402 0 00.042-.002l.015-.001.038-.005.015-.001.047-.007h.005l.05-.008a.377.377 0 00.072-.012l.03-.006a.765.765 0 01.023-.004l.026-.005.024-.006.03-.006.041-.01.024-.007c.008-.001.017-.004.027-.007l.022-.005.027-.009a.083.083 0 01.02-.005l.028-.01c.007 0 .012-.003.018-.005a1.87 1.87 0 00.108-.037l.01-.004a1.23 1.23 0 00.033-.012c.004-.003.009-.004.013-.005l.032-.013.012-.005c.053-.02.103-.044.155-.07l.006-.003.035-.017.009-.005.035-.017.004-.003c.038-.02.077-.042.113-.064l.003-.002c.011-.006.023-.013.034-.021l.008-.004.033-.021a2.3 2.3 0 00.148-.102l.008-.007.029-.022c.002-.003.007-.005.01-.008l.028-.022.01-.007.091-.078.008-.008.026-.023a.028.028 0 00.011-.01l.026-.023a.322.322 0 01.011-.01l.025-.024.01-.01.045-.047.013-.012.019-.021c.006-.005.01-.01.015-.017l.02-.021.014-.017a.36.36 0 00.034-.04.24.24 0 00.02-.021c.006-.008.013-.018.021-.026l.02-.027a.365.365 0 00.02-.025l.015-.019.018-.023.013-.02.018-.024.013-.019c.006-.01.013-.02.02-.028l.01-.016.028-.043a.59.59 0 01.038-.061l.018-.03.011-.019.017-.03.01-.017c.009-.015.017-.032.025-.048l1.563-2.969h17.67v-.002zm16.714-15.304a1.14 1.14 0 01-1.138 1.137H100.12c-.781 0-1.499.432-1.863 1.123l-4.607 8.757V5.483c0-.627.51-1.136 1.138-1.136h34.604c.627 0 1.138.509 1.138 1.136v23.103z"/><path d="M44.082 66.582c0-1.268-.932-2.296-2.081-2.296H19.53c-1.15 0-2.082 1.028-2.082 2.296 0 1.268.932 2.296 2.081 2.296H42c1.15 0 2.082-1.028 2.082-2.296zM86.067 64.286H51.688c-1.158 0-2.096 1.028-2.096 2.296 0 1.268.938 2.296 2.096 2.296h34.379c1.157 0 2.096-1.028 2.096-2.296 0-1.268-.939-2.296-2.096-2.296zM30.306 77.602c0 1.268.952 2.296 2.126 2.296h18.707c1.174 0 2.126-1.028 2.126-2.296 0-1.268-.952-2.296-2.126-2.296H32.432c-1.174 0-2.126 1.028-2.126 2.296zM76.004 79.898c1.137 0 2.057-1.028 2.057-2.296 0-1.268-.921-2.296-2.057-2.296H58.997c-1.137 0-2.058 1.028-2.058 2.296 0 1.268.921 2.296 2.058 2.296h17.007zM49.592 86.786c0-1.268-.943-2.296-2.105-2.296h-5.893c-1.162 0-2.104 1.028-2.104 2.296 0 1.267.942 2.296 2.104 2.296h5.893c1.162 0 2.105-1.029 2.105-2.296zM86.027 84.49H53.565c-1.18 0-2.136 1.028-2.136 2.296 0 1.269.956 2.296 2.136 2.296h32.464c1.179 0 2.134-1.029 2.134-2.296 0-1.27-.956-2.296-2.136-2.296zM38.303 94.592h-5.892c-1.163 0-2.105 1.028-2.105 2.296 0 1.268.942 2.296 2.105 2.296h5.892c1.163 0 2.105-1.028 2.105-2.296 0-1.268-.942-2.296-2.105-2.296zM77.762 94.592H45.299c-1.18 0-2.136 1.028-2.136 2.296 0 1.268.957 2.296 2.136 2.296h32.463c1.18 0 2.136-1.028 2.136-2.296-.001-1.268-.957-2.296-2.136-2.296z"/></g></svg>