<svg xmlns="http://www.w3.org/2000/svg" viewBox="0 0 254 385"><g fill="none" fill-rule="evenodd"><path d="M92.756 385c27.173 0 55.846-5.173 75.091-10.074 64.341-16.385 107.625-71.69 75.037-135.807C217.538 189.252 159.521 163 106.537 163 53.644 163 5.77 189.166.434 244.12c-4.495 46.3 26.427 81.128 70.149 107.377 1.977 1.187 4.234 2.056 6.375 2.85-5.423 10.157-20.192 17.8-31.169 23.082C59.01 382.935 75.582 385 92.756 385" fill="#FD7560"/><path d="M86.153 211.926C21.812 195.54-21.472 140.236 11.116 76.119 36.462 26.252 94.479 0 147.463 0c52.893 0 100.768 26.166 106.103 81.12 4.495 46.3-26.427 81.128-70.149 107.377-1.977 1.187-4.234 2.056-6.375 2.85 5.423 10.157 20.192 17.8 31.169 23.082-13.221 5.506-29.793 7.571-46.967 7.571-27.173 0-55.846-5.173-75.091-10.074z" fill="#1A86AB" style="mix-blend-mode:darken"/></g></svg>